<svg width="21" height="24" viewBox="0 0 21 24" fill="none" xmlns="http://www.w3.org/2000/svg">
<path d="M20.5295 12.1505C20.2815 11.073 19.4001 10.2782 18.3393 10.1599C15.8278 9.8793 13.2845 9.87798 10.7537 9.8793C8.22183 9.87798 5.67909 9.8793 3.16679 10.1599C2.1065 10.2784 1.22565 11.0733 0.977918 12.1505C0.62484 13.6848 0.620605 15.3597 0.620605 16.9395C0.620605 18.5194 0.620606 20.194 0.973683 21.7283C1.22142 22.8055 2.10226 23.6004 3.16308 23.7189C5.67485 23.9998 8.21759 24.0008 10.7492 23.9998C13.2811 24.0011 15.8233 23.9998 18.3359 23.7189C19.3962 23.6004 20.2775 22.8055 20.5253 21.7283C20.8781 20.194 20.8799 18.5194 20.8799 16.9395C20.8797 15.3594 20.8823 13.6848 20.5295 12.1505ZM6.39927 13.3397H4.93297V21.1312H3.57095V13.3397H2.13137V12.0634H6.39927V13.3397ZM10.0986 21.1315H8.87346V20.3943C8.38672 20.9523 7.9246 21.2244 7.47438 21.2244C7.07975 21.2244 6.8082 21.0645 6.68565 20.7223C6.61895 20.5179 6.57766 20.1945 6.57766 19.7176V14.3748H7.80179V19.3494C7.80179 19.6363 7.80179 19.7853 7.8129 19.8256C7.84228 20.0156 7.93518 20.1119 8.09928 20.1119C8.3449 20.1119 8.60164 19.9227 8.8732 19.5386V14.3748H10.0984L10.0986 21.1315ZM14.7498 19.1035C14.7498 19.7284 14.7077 20.1786 14.6259 20.465C14.4624 20.9676 14.1349 21.2244 13.6479 21.2244C13.2123 21.2244 12.792 20.9824 12.3825 20.4769V21.1317H11.1584V12.0634H12.3825V15.0249C12.778 14.5381 13.1977 14.292 13.6479 14.292C14.1349 14.292 14.4626 14.5484 14.6259 15.0542C14.7082 15.3261 14.7498 15.7728 14.7498 16.4126V19.1035ZM19.3702 17.9763H16.9217V19.1739C16.9217 19.7993 17.1263 20.1117 17.5471 20.1117C17.8486 20.1117 18.0241 19.9478 18.094 19.6207C18.1053 19.5543 18.1215 19.2822 18.1215 18.7912H19.3705V18.9699C19.3705 19.3645 19.3554 19.6363 19.3443 19.7586C19.3033 20.0296 19.2069 20.2755 19.0584 20.492C18.7194 20.9827 18.217 21.2246 17.5776 21.2246C16.9371 21.2246 16.4495 20.9941 16.0957 20.5328C15.836 20.1945 15.7026 19.662 15.7026 18.9439V16.5774C15.7026 15.8551 15.8209 15.3269 16.0811 14.9854C16.4347 14.523 16.922 14.2928 17.5474 14.2928C18.1617 14.2928 18.6487 14.523 18.9917 14.9854C19.2482 15.3269 19.3708 15.8551 19.3708 16.5774V17.9763H19.3702Z" fill="#AAAAAA"/>
<path d="M17.5362 15.3943C17.127 15.3943 16.9219 15.7069 16.9219 16.3315V16.9567H18.146V16.3315C18.1457 15.7069 17.9411 15.3943 17.5362 15.3943Z" fill="#AAAAAA"/>
<path d="M12.9929 15.3943C12.7912 15.3943 12.5869 15.4896 12.3823 15.692V19.8101C12.5867 20.015 12.7912 20.1119 12.9929 20.1119C13.346 20.1119 13.5255 19.8101 13.5255 19.2001V16.3162C13.5255 15.7069 13.346 15.3943 12.9929 15.3943Z" fill="#AAAAAA"/>
<path d="M13.6768 9.25654C14.1281 9.25654 14.5976 8.98233 15.0902 8.41804V9.16284H16.3275V2.33447H15.0902V7.55335C14.816 7.94083 14.5561 8.13246 14.3086 8.13246C14.1429 8.13246 14.0455 8.03453 14.0185 7.84264C14.0034 7.80214 14.0034 7.65154 14.0034 7.36172V2.33447H12.77V7.73386C12.77 8.2161 12.8113 8.54244 12.8796 8.74915C13.004 9.09508 13.2785 9.25654 13.6768 9.25654Z" fill="#AAAAAA"/>
<path d="M5.06304 5.45179V9.16281H6.43512V5.45179L8.08564 0H6.69821L5.76205 3.59827L4.78804 0H3.34424C3.63353 0.849344 3.93447 1.70292 4.22376 2.55306C4.66391 3.83092 4.93864 4.79434 5.06304 5.45179Z" fill="#AAAAAA"/>
<path d="M9.92453 9.25659C10.5444 9.25659 11.0261 9.02342 11.3678 8.55759C11.6275 8.21589 11.7519 7.67754 11.7519 6.9518V4.56072C11.7519 3.83074 11.6277 3.29716 11.3678 2.95228C11.0261 2.48513 10.5447 2.25195 9.92453 2.25195C9.30784 2.25195 8.82639 2.48513 8.4839 2.95228C8.22108 3.29716 8.09668 3.83074 8.09668 4.56072V6.9518C8.09668 7.67754 8.22108 8.21589 8.4839 8.55759C8.82613 9.02342 9.30784 9.25659 9.92453 9.25659ZM9.33404 4.31272C9.33404 3.68094 9.52566 3.36597 9.92453 3.36597C10.3234 3.36597 10.5145 3.68067 10.5145 4.31272V7.18498C10.5145 7.81676 10.3234 8.13278 9.92453 8.13278C9.52566 8.13278 9.33404 7.81676 9.33404 7.18498V4.31272Z" fill="#AAAAAA"/>
</svg>
