<svg width="25" height="25" viewBox="0 0 25 25" fill="none" xmlns="http://www.w3.org/2000/svg">
<g clip-path="url(#clip0_2390_1795)">
<path d="M24.4999 23.6146C24.4999 23.8798 24.3945 24.1342 24.207 24.3217C24.0195 24.5093 23.7651 24.6146 23.4999 24.6146H1.4999C1.23469 24.6146 0.980332 24.5093 0.792796 24.3217C0.605259 24.1342 0.499903 23.8798 0.499903 23.6146C0.499903 23.3494 0.605259 23.095 0.792796 22.9075C0.980332 22.72 1.23469 22.6146 1.4999 22.6146H23.4999C23.7651 22.6146 24.0195 22.72 24.207 22.9075C24.3945 23.095 24.4999 23.3494 24.4999 23.6146ZM0.790903 9.16662C0.575425 8.76694 0.475597 8.31512 0.502623 7.86187C0.529649 7.40861 0.682458 6.97186 0.943903 6.60062C1.37116 5.97374 1.94335 5.45918 2.6119 5.10062L10.1129 1.19662C10.8502 0.813249 11.6689 0.613098 12.4999 0.613098C13.3309 0.613098 14.1496 0.813249 14.8869 1.19662L22.3869 5.10362C23.0555 5.46218 23.6276 5.97673 24.0549 6.60362C24.3163 6.97486 24.4692 7.41161 24.4962 7.86487C24.5232 8.31812 24.4234 8.76994 24.2079 9.16962C23.9759 9.60845 23.628 9.97522 23.202 10.23C22.776 10.4848 22.2883 10.6178 21.7919 10.6146H21.4999V18.6146H22.4999C22.7651 18.6146 23.0195 18.72 23.207 18.9075C23.3945 19.095 23.4999 19.3494 23.4999 19.6146C23.4999 19.8798 23.3945 20.1342 23.207 20.3217C23.0195 20.5093 22.7651 20.6146 22.4999 20.6146H2.4999C2.23469 20.6146 1.98033 20.5093 1.7928 20.3217C1.60526 20.1342 1.4999 19.8798 1.4999 19.6146C1.4999 19.3494 1.60526 19.095 1.7928 18.9075C1.98033 18.72 2.23469 18.6146 2.4999 18.6146H3.4999V10.6146H3.2079C2.71106 10.6177 2.22291 10.4843 1.79669 10.229C1.37047 9.97364 1.02256 9.60616 0.790903 9.16662V9.16662ZM5.4999 18.6146H8.4999V10.6146H5.4999V18.6146ZM10.4999 10.6146V18.6146H14.4999V10.6146H10.4999ZM19.4999 10.6146H16.4999V18.6146H19.4999V10.6146ZM2.5629 8.23962C2.62565 8.3553 2.71902 8.45148 2.83278 8.51762C2.94655 8.58377 3.07633 8.61732 3.2079 8.61462H21.7919C21.9235 8.61732 22.0533 8.58377 22.167 8.51762C22.2808 8.45148 22.3742 8.3553 22.4369 8.23962C22.4826 8.16318 22.5047 8.07495 22.5004 7.98599C22.4962 7.89704 22.4657 7.81133 22.4129 7.73962C22.1706 7.37953 21.8451 7.08316 21.4639 6.87562V6.87562L13.9639 2.96862C13.5119 2.73404 13.0101 2.61159 12.5009 2.61159C11.9917 2.61159 11.4899 2.73404 11.0379 2.96862L3.5379 6.87562C3.15689 7.08383 2.83143 7.38047 2.5889 7.74062C2.53599 7.81203 2.5053 7.89745 2.50068 7.9862C2.49606 8.07495 2.5177 8.1631 2.5629 8.23962V8.23962Z" fill="white"/>
</g>
<defs>
<clipPath id="clip0_2390_1795">
<rect width="24" height="24" fill="white" transform="translate(0.5 0.615051)"/>
</clipPath>
</defs>
</svg>
