<svg width="57" height="57" viewBox="0 0 57 57" fill="none" xmlns="http://www.w3.org/2000/svg">
<rect x="0.5" y="0.615051" width="56" height="56" rx="16" fill="#7033FF"/>
<g clip-path="url(#clip0_2390_1578)">
<path d="M28.5 22.6151C27.7044 22.6151 26.9413 22.9311 26.3787 23.4937C25.8161 24.0563 25.5 24.8194 25.5 25.6151V37.6151C25.5 38.4107 25.8161 39.1738 26.3787 39.7364C26.9413 40.299 27.7044 40.6151 28.5 40.6151C29.2956 40.6151 30.0587 40.299 30.6213 39.7364C31.1839 39.1738 31.5 38.4107 31.5 37.6151V25.6151C31.5 24.8194 31.1839 24.0563 30.6213 23.4937C30.0587 22.9311 29.2956 22.6151 28.5 22.6151ZM29.5 37.6151C29.5 37.8803 29.3946 38.1346 29.2071 38.3222C29.0196 38.5097 28.7652 38.6151 28.5 38.6151C28.2348 38.6151 27.9804 38.5097 27.7929 38.3222C27.6054 38.1346 27.5 37.8803 27.5 37.6151V25.6151C27.5 25.3498 27.6054 25.0955 27.7929 24.9079C27.9804 24.7204 28.2348 24.6151 28.5 24.6151C28.7652 24.6151 29.0196 24.7204 29.2071 24.9079C29.3946 25.0955 29.5 25.3498 29.5 25.6151V37.6151Z" fill="white"/>
<path d="M19.5 28.6151C18.7044 28.6151 17.9413 28.9311 17.3787 29.4937C16.8161 30.0563 16.5 30.8194 16.5 31.6151V37.6151C16.5 38.4107 16.8161 39.1738 17.3787 39.7364C17.9413 40.299 18.7044 40.6151 19.5 40.6151C20.2956 40.6151 21.0587 40.299 21.6213 39.7364C22.1839 39.1738 22.5 38.4107 22.5 37.6151V31.6151C22.5 30.8194 22.1839 30.0563 21.6213 29.4937C21.0587 28.9311 20.2956 28.6151 19.5 28.6151ZM20.5 37.6151C20.5 37.8803 20.3946 38.1346 20.2071 38.3222C20.0196 38.5097 19.7652 38.6151 19.5 38.6151C19.2348 38.6151 18.9804 38.5097 18.7929 38.3222C18.6054 38.1346 18.5 37.8803 18.5 37.6151V31.6151C18.5 31.3498 18.6054 31.0955 18.7929 30.9079C18.9804 30.7204 19.2348 30.6151 19.5 30.6151C19.7652 30.6151 20.0196 30.7204 20.2071 30.9079C20.3946 31.0955 20.5 31.3498 20.5 31.6151V37.6151Z" fill="white"/>
<path d="M37.5 16.6151C36.7044 16.6151 35.9413 16.9311 35.3787 17.4937C34.8161 18.0563 34.5 18.8194 34.5 19.6151V37.6151C34.5 38.4107 34.8161 39.1738 35.3787 39.7364C35.9413 40.299 36.7044 40.6151 37.5 40.6151C38.2956 40.6151 39.0587 40.299 39.6213 39.7364C40.1839 39.1738 40.5 38.4107 40.5 37.6151V19.6151C40.5 18.8194 40.1839 18.0563 39.6213 17.4937C39.0587 16.9311 38.2956 16.6151 37.5 16.6151V16.6151ZM38.5 37.6151C38.5 37.8803 38.3946 38.1346 38.2071 38.3222C38.0196 38.5097 37.7652 38.6151 37.5 38.6151C37.2348 38.6151 36.9804 38.5097 36.7929 38.3222C36.6054 38.1346 36.5 37.8803 36.5 37.6151V19.6151C36.5 19.3498 36.6054 19.0955 36.7929 18.9079C36.9804 18.7204 37.2348 18.6151 37.5 18.6151C37.7652 18.6151 38.0196 18.7204 38.2071 18.9079C38.3946 19.0955 38.5 19.3498 38.5 19.6151V37.6151Z" fill="white"/>
</g>
<defs>
<clipPath id="clip0_2390_1578">
<rect width="24" height="24" fill="white" transform="translate(16.5 16.6151)"/>
</clipPath>
</defs>
</svg>
