<svg width="15" height="14" viewBox="0 0 15 14" fill="none" xmlns="http://www.w3.org/2000/svg">
<path d="M13.9853 11.9455C13.6958 12.763 12.5468 13.441 11.6303 13.639C11.0033 13.7725 10.1843 13.879 7.42733 12.736C3.90083 11.275 1.62983 7.69152 1.45283 7.45902C1.28333 7.22652 0.027832 5.56153 0.027832 3.83953C0.027832 2.11753 0.902332 1.27903 1.25483 0.919026C1.54433 0.623526 2.02283 0.488525 2.48183 0.488525C2.63033 0.488525 2.76383 0.496025 2.88383 0.502025C3.23633 0.517025 3.41333 0.538026 3.64583 1.09453C3.93533 1.79203 4.64033 3.51403 4.72433 3.69103C4.80983 3.86803 4.89533 4.10803 4.77533 4.34053C4.66283 4.58053 4.56383 4.68702 4.38683 4.89102C4.20983 5.09502 4.04183 5.25103 3.86483 5.47003C3.70283 5.66053 3.51983 5.86453 3.72383 6.21703C3.92783 6.56203 4.63283 7.71252 5.67083 8.63652C7.01033 9.82902 8.09633 10.21 8.48483 10.372C8.77433 10.492 9.11933 10.4635 9.33083 10.2385C9.59933 9.94903 9.93083 9.46903 10.2683 8.99653C10.5083 8.65753 10.8113 8.61552 11.1293 8.73552C11.4533 8.84802 13.1678 9.69552 13.5203 9.87102C13.8728 10.048 14.1053 10.132 14.1908 10.2805C14.2748 10.429 14.2748 11.1265 13.9853 11.9455Z" fill="white"/>
</svg>
