<svg width="25" height="24" viewBox="0 0 25 24" fill="none" xmlns="http://www.w3.org/2000/svg">
<path d="M24.4763 7.05607C24.4201 5.78085 24.2139 4.90416 23.9185 4.14449C23.6137 3.33812 23.1449 2.61617 22.5306 2.01602C21.9305 1.40652 21.2038 0.932921 20.4068 0.632936C19.6427 0.337529 18.7706 0.131312 17.4954 0.0750879C16.2106 0.0141019 15.8028 0 12.5443 0C9.28588 0 8.87803 0.0141019 7.59805 0.0703262C6.32284 0.126551 5.44615 0.332951 4.68666 0.628174C3.88011 0.932922 3.15816 1.40176 2.55801 2.01602C1.94852 2.61617 1.4751 3.34288 1.17493 4.13991C0.879521 4.90416 0.673304 5.77609 0.61708 7.0513C0.556094 8.33604 0.541992 8.7439 0.541992 12.0023C0.541992 15.2608 0.556094 15.6686 0.612318 16.9486C0.668543 18.2238 0.874943 19.1005 1.17035 19.8602C1.4751 20.6666 1.94852 21.3885 2.55801 21.9887C3.15816 22.5982 3.88487 23.0718 4.6819 23.3718C5.44615 23.6672 6.31808 23.8734 7.59348 23.9296C8.87327 23.986 9.2813 23.9999 12.5398 23.9999C15.7982 23.9999 16.2061 23.986 17.486 23.9296C18.7612 23.8734 19.6379 23.6672 20.3974 23.3718C22.0103 22.7482 23.2856 21.4729 23.9092 19.8602C24.2044 19.096 24.4108 18.2238 24.467 16.9486C24.5232 15.6686 24.5373 15.2608 24.5373 12.0023C24.5373 8.7439 24.5326 8.33604 24.4763 7.05607ZM22.3151 16.8549C22.2634 18.027 22.0666 18.6599 21.9025 19.0819C21.4992 20.1274 20.6694 20.9572 19.6238 21.3605C19.2019 21.5246 18.5644 21.7215 17.3968 21.7729C16.131 21.8293 15.7513 21.8433 12.5491 21.8433C9.34687 21.8433 8.96246 21.8293 7.70116 21.7729C6.52906 21.7215 5.89612 21.5246 5.47417 21.3605C4.95386 21.1682 4.48026 20.8634 4.09585 20.4649C3.69733 20.0758 3.39258 19.6069 3.20029 19.0866C3.03619 18.6647 2.83931 18.027 2.78785 16.8596C2.73144 15.5937 2.71753 15.2139 2.71753 12.0117C2.71753 8.80946 2.73144 8.42505 2.78785 7.16394C2.83931 5.99183 3.03619 5.3589 3.20029 4.93694C3.39258 4.41645 3.69733 3.94303 4.10061 3.55843C4.4896 3.15992 4.95844 2.85517 5.47893 2.66306C5.90088 2.49896 6.53858 2.30209 7.70592 2.25044C8.9718 2.19422 9.35163 2.18011 12.5537 2.18011C15.7607 2.18011 16.1403 2.19422 17.4016 2.25044C18.5737 2.30209 19.2066 2.49896 19.6286 2.66306C20.1489 2.85517 20.6225 3.15992 21.0069 3.55843C21.4054 3.94761 21.7102 4.41645 21.9025 4.93694C22.0666 5.3589 22.2634 5.99641 22.3151 7.16394C22.3713 8.42981 22.3854 8.80946 22.3854 12.0117C22.3854 15.2139 22.3713 15.589 22.3151 16.8549Z" fill="#AAAAAA"/>
</svg>
