<svg width="41" height="42" viewBox="0 0 41 42" fill="none" xmlns="http://www.w3.org/2000/svg">
<path fill-rule="evenodd" clip-rule="evenodd" d="M20.5 0.500002C37.3818 0.500003 41 4.11825 41 21C41 37.8817 37.3817 41.5 20.5 41.5C3.61825 41.5 -3.49838e-06 37.8817 -2.02253e-06 21C-5.46681e-07 4.11825 3.61825 0.500001 20.5 0.500002ZM29.0417 22.7083C29.9852 22.7083 30.75 21.9435 30.75 21C30.75 20.0565 29.9852 19.2917 29.0417 19.2917L11.9584 19.2917C11.0149 19.2917 10.2501 20.0565 10.2501 21C10.2501 21.9435 11.0149 22.7083 11.9584 22.7083L29.0417 22.7083ZM25.625 29.5417C25.625 30.4852 24.8602 31.25 23.9167 31.25L17.0834 31.25C16.1399 31.25 15.3751 30.4852 15.3751 29.5417C15.3751 28.5982 16.1399 27.8334 17.0834 27.8334L23.9167 27.8334C24.8602 27.8333 25.625 28.5982 25.625 29.5417ZM23.9167 14.1667C24.8602 14.1667 25.625 13.4019 25.625 12.4584C25.625 11.5149 24.8602 10.7501 23.9167 10.7501L17.0834 10.7501C16.1399 10.7501 15.3751 11.5149 15.3751 12.4584C15.3751 13.4019 16.1399 14.1667 17.0834 14.1667L23.9167 14.1667Z" fill="url(#paint0_linear_2391_1814)"/>
<defs>
<linearGradient id="paint0_linear_2391_1814" x1="41" y1="8.88637" x2="5.81802e-07" y2="34.0455" gradientUnits="userSpaceOnUse">
<stop stop-color="#7858D7"/>
<stop offset="1" stop-color="#6545C7"/>
</linearGradient>
</defs>
</svg>
