<svg width="24" height="20" viewBox="0 0 24 20" fill="none" xmlns="http://www.w3.org/2000/svg">
<path d="M8.06877 19.0103C16.5598 19.0103 21.2031 11.9757 21.2031 5.87588C21.2031 5.67609 21.199 5.47712 21.1901 5.27926C22.0913 4.6276 22.8747 3.81439 23.4928 2.88878C22.6657 3.25657 21.7754 3.50384 20.8418 3.6157C21.7948 3.04399 22.5266 2.13997 22.8717 1.0623C21.9797 1.59109 20.9919 1.97526 19.9404 2.18276C19.098 1.28549 17.8986 0.724365 16.5706 0.724365C14.0215 0.724365 11.9541 2.79163 11.9541 5.33994C11.9541 5.70237 11.9947 6.05462 12.0738 6.39256C8.23719 6.19951 4.83495 4.36272 2.5584 1.56949C2.16212 2.25156 1.93343 3.04412 1.93343 3.8898C1.93343 5.49116 2.74842 6.90525 3.98762 7.73221C3.23029 7.70896 2.51891 7.50105 1.89697 7.15499C1.89628 7.17439 1.89628 7.19324 1.89628 7.21388C1.89628 9.44957 3.48746 11.3162 5.59999 11.7392C5.21197 11.8447 4.80372 11.9016 4.38267 11.9016C4.08573 11.9016 3.79623 11.8724 3.51498 11.8183C4.10266 13.6525 5.80694 14.9872 7.82742 15.0246C6.24739 16.263 4.25704 17.0006 2.09387 17.0006C1.72181 17.0006 1.35401 16.9793 0.992676 16.9367C3.03572 18.2462 5.46171 19.0104 8.06891 19.0104" fill="#AAAAAA"/>
</svg>
