<svg width="57" height="57" viewBox="0 0 57 57" fill="none" xmlns="http://www.w3.org/2000/svg">
<rect x="0.5" y="0.0168457" width="56" height="56" rx="16" fill="#FFCC40"/>
<g clip-path="url(#clip0_2390_1595)">
<path d="M23.5 16.0168H20.5C19.4391 16.0168 18.4217 16.4383 17.6716 17.1884C16.9214 17.9386 16.5 18.956 16.5 20.0168V23.0168C16.5 24.0777 16.9214 25.0951 17.6716 25.8453C18.4217 26.5954 19.4391 27.0168 20.5 27.0168H23.5C24.5609 27.0168 25.5783 26.5954 26.3284 25.8453C27.0786 25.0951 27.5 24.0777 27.5 23.0168V20.0168C27.5 18.956 27.0786 17.9386 26.3284 17.1884C25.5783 16.4383 24.5609 16.0168 23.5 16.0168V16.0168ZM25.5 23.0168C25.5 23.5473 25.2893 24.056 24.9142 24.4311C24.5391 24.8061 24.0304 25.0168 23.5 25.0168H20.5C19.9696 25.0168 19.4609 24.8061 19.0858 24.4311C18.7107 24.056 18.5 23.5473 18.5 23.0168V20.0168C18.5 19.4864 18.7107 18.9777 19.0858 18.6026C19.4609 18.2276 19.9696 18.0168 20.5 18.0168H23.5C24.0304 18.0168 24.5391 18.2276 24.9142 18.6026C25.2893 18.9777 25.5 19.4864 25.5 20.0168V23.0168Z" fill="white"/>
<path d="M36.5 16.0168H33.5C32.4391 16.0168 31.4217 16.4383 30.6716 17.1884C29.9214 17.9386 29.5 18.956 29.5 20.0168V23.0168C29.5 24.0777 29.9214 25.0951 30.6716 25.8453C31.4217 26.5954 32.4391 27.0168 33.5 27.0168H36.5C37.5609 27.0168 38.5783 26.5954 39.3284 25.8453C40.0786 25.0951 40.5 24.0777 40.5 23.0168V20.0168C40.5 18.956 40.0786 17.9386 39.3284 17.1884C38.5783 16.4383 37.5609 16.0168 36.5 16.0168V16.0168ZM38.5 23.0168C38.5 23.5473 38.2893 24.056 37.9142 24.4311C37.5391 24.8061 37.0304 25.0168 36.5 25.0168H33.5C32.9696 25.0168 32.4609 24.8061 32.0858 24.4311C31.7107 24.056 31.5 23.5473 31.5 23.0168V20.0168C31.5 19.4864 31.7107 18.9777 32.0858 18.6026C32.4609 18.2276 32.9696 18.0168 33.5 18.0168H36.5C37.0304 18.0168 37.5391 18.2276 37.9142 18.6026C38.2893 18.9777 38.5 19.4864 38.5 20.0168V23.0168Z" fill="white"/>
<path d="M23.5 29.0168H20.5C19.4391 29.0168 18.4217 29.4383 17.6716 30.1884C16.9214 30.9386 16.5 31.956 16.5 33.0168V36.0168C16.5 37.0777 16.9214 38.0951 17.6716 38.8453C18.4217 39.5954 19.4391 40.0168 20.5 40.0168H23.5C24.5609 40.0168 25.5783 39.5954 26.3284 38.8453C27.0786 38.0951 27.5 37.0777 27.5 36.0168V33.0168C27.5 31.956 27.0786 30.9386 26.3284 30.1884C25.5783 29.4383 24.5609 29.0168 23.5 29.0168V29.0168ZM25.5 36.0168C25.5 36.5473 25.2893 37.056 24.9142 37.4311C24.5391 37.8061 24.0304 38.0168 23.5 38.0168H20.5C19.9696 38.0168 19.4609 37.8061 19.0858 37.4311C18.7107 37.056 18.5 36.5473 18.5 36.0168V33.0168C18.5 32.4864 18.7107 31.9777 19.0858 31.6026C19.4609 31.2276 19.9696 31.0168 20.5 31.0168H23.5C24.0304 31.0168 24.5391 31.2276 24.9142 31.6026C25.2893 31.9777 25.5 32.4864 25.5 33.0168V36.0168Z" fill="white"/>
<path d="M36.5 29.0168H33.5C32.4391 29.0168 31.4217 29.4383 30.6716 30.1884C29.9214 30.9386 29.5 31.956 29.5 33.0168V36.0168C29.5 37.0777 29.9214 38.0951 30.6716 38.8453C31.4217 39.5954 32.4391 40.0168 33.5 40.0168H36.5C37.5609 40.0168 38.5783 39.5954 39.3284 38.8453C40.0786 38.0951 40.5 37.0777 40.5 36.0168V33.0168C40.5 31.956 40.0786 30.9386 39.3284 30.1884C38.5783 29.4383 37.5609 29.0168 36.5 29.0168V29.0168ZM38.5 36.0168C38.5 36.5473 38.2893 37.056 37.9142 37.4311C37.5391 37.8061 37.0304 38.0168 36.5 38.0168H33.5C32.9696 38.0168 32.4609 37.8061 32.0858 37.4311C31.7107 37.056 31.5 36.5473 31.5 36.0168V33.0168C31.5 32.4864 31.7107 31.9777 32.0858 31.6026C32.4609 31.2276 32.9696 31.0168 33.5 31.0168H36.5C37.0304 31.0168 37.5391 31.2276 37.9142 31.6026C38.2893 31.9777 38.5 32.4864 38.5 33.0168V36.0168Z" fill="white"/>
</g>
<defs>
<clipPath id="clip0_2390_1595">
<rect width="24" height="24" fill="white" transform="translate(16.5 16.0168)"/>
</clipPath>
</defs>
</svg>
